#N canvas 819 275 1101 621 12;
#X obj 58 36 inlet~;
#X obj 263 40 inlet~;
#X obj 517 60 inlet~;
#X obj 306 578 outlet~;
#X text 52 13 Input 1;
#X text 261 16 Input 2;
#X text 503 37 Crossfade CV;
#X obj 855 112 *~ -1;
#X obj 859 136 +~ 1;
#X obj 678 212 *~;
#X obj 579 247 *~;
#X obj 582 280 +~ 1;
#X obj 568 204 *~ 1.4186;
#X obj 593 320 *~;
#X obj 554 349 +~;
#X obj 517 85 *~ 1;
#X obj 767 242 *~;
#X obj 768 279 +~ 1;
#X obj 778 207 *~ 1.4186;
#X obj 755 319 *~;
#X obj 821 356 +~;
#X obj 592 413 pow~ 2;
#X obj 729 421 pow~ 2;
#X obj 146 461 *~;
#X obj 464 492 *~;
#X obj 305 547 +~;
#X text 617 37 fexpr~ hill = $x1 * (1 - $x1) \; xfade = pow((hill *
(1 + 1.4186 * hill) + $x1) \, 2) \; 1 - xfade;
#X connect 0 0 23 0;
#X connect 1 0 24 0;
#X connect 2 0 15 0;
#X connect 7 0 8 0;
#X connect 8 0 9 1;
#X connect 8 0 18 0;
#X connect 8 0 20 1;
#X connect 9 0 13 1;
#X connect 9 0 16 0;
#X connect 9 0 19 0;
#X connect 9 0 10 1;
#X connect 10 0 11 0;
#X connect 11 0 13 0;
#X connect 12 0 10 0;
#X connect 13 0 14 1;
#X connect 14 0 22 0;
#X connect 15 0 12 0;
#X connect 15 0 7 0;
#X connect 15 0 9 0;
#X connect 15 0 14 0;
#X connect 16 0 17 0;
#X connect 17 0 19 1;
#X connect 18 0 16 1;
#X connect 19 0 20 0;
#X connect 20 0 21 0;
#X connect 21 0 23 1;
#X connect 22 0 24 1;
#X connect 23 0 25 0;
#X connect 24 0 25 1;
#X connect 25 0 3 0;
#X coords 0 621 1 620 220 60 0;
