#N canvas 3 26 1917 943 12;
#X obj 1658 419 *~;
#X obj 593 471 hip~ 20;
#X obj 366 -165 tgl 15 0 empty empty empty 17 7 0 10 #fcfcfc #000000
#000000 0 1;
#X obj 238 342 vline~;
#X obj 266 464 hip~ 18;
#X obj 370 491 vline~;
#X obj 268 574 *~;
#X obj 267 382 osc~;
#X obj 1679 350 vline~;
#X obj 1217 358 vline~;
#X obj 1143 415 *~;
#X obj 675 482 vline~;
#X obj 185 501 lop~ 216;
#X msg 681 452 stop \, 420 1 125 \, 0 50 200 \, 840 1 250 \, 0 150
400 \, 1680 1 500;
#X msg 530 282 0, f 5;
#X obj 267 426 -~ 0;
#X obj 42 343 line~;
#X obj 73 648 outlet~;
#X msg 40 313 1 \, 0 1;
#X obj 165 652 outlet;
#X msg 436 312 0.5;
#X msg 91 313 stop \, 3000 \, 212 4 \, 144 6 2 \, 72 20 10 \, 36 125
30;
#X obj 1070 104 noise~;
#X obj 1636 57 noise~;
#X obj 1683 388 expr~ dbtorms($v1*100);
#X obj 403 667 vline~;
#X obj 407 695 expr~ dbtorms($v1*100);
#X obj 576 756 *~;
#X obj 735 818 *~;
#X obj 752 715 vline~;
#X obj 266 502 lop~ 1500;
#X obj 738 748 expr~ dbtorms($v1*100);
#X obj 335 545 expr~ dbtorms($v1*98);
#X msg 762 671 stop \, 0.94 125 0 \, 0.94 1 125 \, 0.9 50 190 \, 1
10 240 \, 0.94 100 325 \, 1 1 375 \, 1 50 450;
#X msg 405 625 stop \, 1 1 125 \, 0.97 50 200 \, 1 1 250 \, 0.97 50
325 \, 1 1 375 \, 0.91 25 475;
#X obj 1651 255 lop~ 12000 4;
#X obj 1650 205 hip~ 2200 4;
#X obj 1117 315 lop~ 9000 4;
#X obj 1114 268 hip~ 1000 4;
#X obj 1177 384 expr~ dbtorms($v1*100);
#X msg 1681 298 stop \, 0.82 1 125 \, 0 50 200 \, 0.99 1 250 \, 0 50
325 \, 0.95 200 375 \, 0 25 475;
#X msg 1224 316 stop \, 0 125 0 \, 0.91 20 125 \, 0.97 25 215 \, 0.98
10 240 \, 0 100 325 \, 0.93 1 375 \, 0.97 50 450;
#X text 1317 117 resonant frequency in Hz;
#X obj 1375 147 loadbang;
#X obj 1121 223 *~ -1;
#X msg 1199 111 \$1 30;
#X obj 1171 153 line~;
#X msg 1330 148 3000;
#X floatatom 1242 169 5 0 0 0 - - - 0;
#X obj 1645 96 bp~ 3000 6, f 16;
#X obj 1681 128 bp~ 6000 6, f 16;
#X obj 1681 152 *~ 0.7;
#X obj 1194 230 bp~ 3900 6, f 16;
#X obj 1334 227 bp~ 3800 6, f 16;
#X floatatom 1389 203 9 0 0 0 - - - 0;
#X obj 601 214 mtof~;
#X obj 1385 12 line;
#X obj 1384 35 mtof;
#X msg 1385 -13 \$1 250;
#X obj 1460 13 line;
#X obj 1459 36 mtof;
#X floatatom 1198 90 9 0 0 0 - - - 0;
#X msg 1460 -12 \$1 375;
#X obj 1385 -71 random 6;
#X obj 1459 -70 random 6;
#X obj 1385 -37 + 90;
#X obj 1460 -36 + 93;
#X obj 1303 82 noise~;
#X obj 561 395 crossfader~;
#X obj 659 229 clip~ 0 1;
#X floatatom 474 174 5 0 0 0 - - - 0;
#X obj 474 197 mtof;
#X floatatom 474 221 12 0 0 0 - - - 0;
#X obj 596 268 phasor~ 32.7032;
#X obj 478 317 phasor~ 32.7032;
#X msg 472 144 24;
#X obj 726 264 mtof~;
#X obj 919 227 /~ 2;
#X obj 919 275 clip~ 0 1;
#X obj 919 179 osc~ 0.0625;
#X obj 605 423 crossfader~;
#X obj 717 318 phasor~ 32.7032;
#X obj 604 77 line~;
#X obj 726 288 *~ 1;
#X obj 743 77 line~;
#X msg 864 135 0.5;
#X obj 1114 186 vcf~ 0.12, f 16;
#X obj 261 624 hip~ 1;
#X obj 771 -139 metro 1000;
#X obj 348 -136 metro 500;
#X obj 1097 -145 metro 750;
#X obj 1237 -151 metro 1500;
#X obj 919 203 +~ -0.25;
#X obj 721 6 route 0 2 3 5 7 8 10;
#X obj 601 238 *~ 1;
#X obj 919 251 *~ 4;
#X obj 606 45 pack f 30;
#X obj 752 44 pack f 30;
#X floatatom 627 -53 5 0 0 0 - - - 0;
#X msg 700 -32 \$1 \$1;
#X obj 567 4 route 0 2 3 5 7 8 10;
#X msg 805 -45 \$1 \$1;
#X obj 603 -141 metro 3000;
#X obj 627 -92 random 4;
#X obj 760 -73 random 4;
#X obj 498 344 -~ 0.5;
#X obj 714 343 -~ 0.5;
#X obj 599 292 -~ 0.5;
#X obj 577 348 clip~ -1 1;
#X obj 604 320 *~ -3;
#X obj 725 237 +~ 24;
#X obj 795 198 mtof~;
#X obj 786 252 phasor~ 32.7032;
#X obj 795 222 *~ 1;
#X obj 783 277 -~ 0.5;
#X obj 794 171 +~ 23;
#X obj 605 188 +~ 24;
#X obj 577 372 *~ 0.8;
#X obj 659 185 *~ -30;
#X obj 659 103 phasor~ 2;
#X obj 659 157 +~;
#X obj 735 117 phasor~ 0.25;
#X msg 367 451 stop \, 1 \, 0 150 100;
#X obj 719 1045 hip~ 1;
#X obj 1663 457 *~ 0.6;
#X obj 1149 440 *~ 0.25;
#X obj 264 664 *~ 0.7;
#X obj 599 528 vcf~ 0.707;
#X obj 599 559 vcf~ 0.707;
#X obj 599 590 vcf~ 0.707;
#X obj 738 1142 dac~ 1 2 3 4;
#X obj 361 -224 loadbang;
#X msg 374 -192 1;
#X obj 634 967 wavefolder~;
#X obj 617 924 *~;
#X obj 518 523 *~;
#X obj 516 472 *~;
#X obj 501 565 *~;
#X obj 735 141 *~ 0.75;
#X obj 537 492 *~ 0.5;
#X obj 661 871 *~;
#X obj 634 991 *~ 0.3;
#X obj 734 1080 *~ 0.9;
#X obj 439 -192 delay 2000;
#X connect 0 0 124 0;
#X connect 1 0 127 0;
#X connect 2 0 89 0;
#X connect 2 0 88 0;
#X connect 2 0 90 0;
#X connect 2 0 91 0;
#X connect 2 0 85 0;
#X connect 2 0 102 0;
#X connect 2 0 119 1;
#X connect 2 0 121 1;
#X connect 3 0 7 0;
#X connect 4 0 12 0;
#X connect 4 0 30 0;
#X connect 5 0 32 0;
#X connect 6 0 87 0;
#X connect 7 0 15 0;
#X connect 8 0 24 0;
#X connect 9 0 39 0;
#X connect 10 0 125 0;
#X connect 11 0 127 1;
#X connect 11 0 128 1;
#X connect 11 0 129 1;
#X connect 12 0 6 0;
#X connect 13 0 11 0;
#X connect 14 0 73 1;
#X connect 14 0 74 1;
#X connect 14 0 81 1;
#X connect 15 0 4 0;
#X connect 16 0 17 0;
#X connect 18 0 16 0;
#X connect 20 0 7 1;
#X connect 21 0 3 0;
#X connect 22 0 38 0;
#X connect 22 0 52 0;
#X connect 22 0 86 0;
#X connect 23 0 49 0;
#X connect 24 0 0 1;
#X connect 25 0 26 0;
#X connect 26 0 27 1;
#X connect 27 0 28 0;
#X connect 28 0 123 0;
#X connect 28 0 140 0;
#X connect 29 0 31 0;
#X connect 30 0 6 0;
#X connect 31 0 28 1;
#X connect 32 0 6 1;
#X connect 33 0 29 0;
#X connect 34 0 25 0;
#X connect 35 0 0 0;
#X connect 36 0 35 0;
#X connect 37 0 10 0;
#X connect 38 0 37 0;
#X connect 39 0 10 1;
#X connect 40 0 8 0;
#X connect 41 0 9 0;
#X connect 43 0 47 0;
#X connect 44 0 38 0;
#X connect 44 0 52 0;
#X connect 45 0 46 0;
#X connect 46 0 86 1;
#X connect 47 0 46 0;
#X connect 48 0 86 2;
#X connect 49 0 36 0;
#X connect 49 0 50 0;
#X connect 50 0 51 0;
#X connect 51 0 36 0;
#X connect 52 0 38 0;
#X connect 53 0 38 0;
#X connect 54 0 53 1;
#X connect 55 0 94 0;
#X connect 56 0 57 0;
#X connect 57 0 54 0;
#X connect 57 0 49 1;
#X connect 58 0 56 0;
#X connect 59 0 60 0;
#X connect 60 0 61 0;
#X connect 60 0 50 1;
#X connect 61 0 45 0;
#X connect 62 0 59 0;
#X connect 63 0 65 0;
#X connect 64 0 66 0;
#X connect 65 0 58 0;
#X connect 66 0 62 0;
#X connect 67 0 53 0;
#X connect 68 0 80 0;
#X connect 69 0 68 2;
#X connect 70 0 71 0;
#X connect 71 0 72 0;
#X connect 72 0 74 0;
#X connect 73 0 107 0;
#X connect 74 0 105 0;
#X connect 75 0 70 0;
#X connect 76 0 83 0;
#X connect 77 0 95 0;
#X connect 77 0 140 1;
#X connect 78 0 80 2;
#X connect 79 0 92 0;
#X connect 80 0 1 0;
#X connect 80 0 136 0;
#X connect 81 0 106 0;
#X connect 83 0 81 0;
#X connect 85 0 79 0;
#X connect 86 0 44 0;
#X connect 87 0 126 0;
#X connect 88 0 41 0;
#X connect 89 0 122 0;
#X connect 89 0 13 0;
#X connect 89 0 20 0;
#X connect 89 0 14 0;
#X connect 89 0 18 0;
#X connect 89 0 21 0;
#X connect 89 0 40 0;
#X connect 89 0 63 0;
#X connect 89 0 64 0;
#X connect 89 0 34 0;
#X connect 89 0 33 0;
#X connect 89 0 103 0;
#X connect 89 0 104 0;
#X connect 89 0 19 0;
#X connect 90 0 41 0;
#X connect 91 0 40 0;
#X connect 92 0 77 0;
#X connect 93 0 97 0;
#X connect 93 2 97 0;
#X connect 93 4 97 0;
#X connect 94 0 73 0;
#X connect 95 0 78 0;
#X connect 95 0 137 1;
#X connect 96 0 82 0;
#X connect 97 0 84 0;
#X connect 99 0 100 0;
#X connect 100 0 96 0;
#X connect 100 2 96 0;
#X connect 100 6 96 0;
#X connect 101 0 93 0;
#X connect 103 0 98 0;
#X connect 103 0 99 0;
#X connect 104 0 101 0;
#X connect 105 0 68 0;
#X connect 105 0 136 1;
#X connect 106 0 80 1;
#X connect 107 0 109 0;
#X connect 108 0 117 0;
#X connect 109 0 108 0;
#X connect 110 0 76 0;
#X connect 111 0 113 0;
#X connect 112 0 114 0;
#X connect 113 0 112 0;
#X connect 114 0 68 1;
#X connect 115 0 111 0;
#X connect 116 0 55 0;
#X connect 117 0 68 0;
#X connect 118 0 69 0;
#X connect 118 0 139 0;
#X connect 119 0 120 0;
#X connect 120 0 118 0;
#X connect 121 0 120 1;
#X connect 121 0 138 0;
#X connect 122 0 5 0;
#X connect 123 0 142 0;
#X connect 124 0 130 3;
#X connect 125 0 130 2;
#X connect 126 0 130 0;
#X connect 127 0 128 0;
#X connect 128 0 129 0;
#X connect 129 0 27 0;
#X connect 131 0 143 0;
#X connect 132 0 2 0;
#X connect 133 0 141 0;
#X connect 134 0 133 0;
#X connect 135 0 137 0;
#X connect 136 0 135 0;
#X connect 137 0 134 1;
#X connect 138 0 134 0;
#X connect 139 0 135 1;
#X connect 140 0 134 0;
#X connect 141 0 123 0;
#X connect 142 0 130 1;
#X connect 143 0 132 0;
#X connect 143 0 75 0;
