#N canvas 959 238 540 621 12;
#X obj 102 245 env~ 1024;
#X obj 213 234 abs~;
#X obj 214 330 snapshot~;
#X obj 214 373 rmstodb;
#X obj 61 37 inlet~;
#X obj 214 405 - 100;
#X obj 102 414 - 100;
#X obj 102 488 outlet;
#X obj 292 206 expr 1000 / $f1;
#X floatatom 292 234 5 0 0 0 - - - 0;
#X obj 214 263 slop~ 0 0 0 0 1e+09;
#X obj 139 37 inlet;
#X floatatom 292 185 5 0 0 0 - - - 0;
#X text 412 206 convert to hz;
#X text 335 235 hz;
#X text 337 185 peak decay time in ms;
#X obj 102 298 t f b;
#X obj 102 438 pack;
#X obj 229 37 r loadbang;
#X obj 229 68 bng 15 250 50 0 empty empty empty 17 7 0 10 #fcfcfc #000000
#000000;
#X msg 301 162 10000;
#X connect 0 0 16 0;
#X connect 1 0 10 0;
#X connect 2 0 3 0;
#X connect 3 0 5 0;
#X connect 4 0 1 0;
#X connect 4 0 0 0;
#X connect 5 0 17 1;
#X connect 6 0 17 0;
#X connect 8 0 9 0;
#X connect 9 0 10 3;
#X connect 10 0 2 0;
#X connect 11 0 12 0;
#X connect 12 0 8 0;
#X connect 16 0 6 0;
#X connect 16 1 2 0;
#X connect 17 0 7 0;
#X connect 18 0 19 0;
#X connect 19 0 20 0;
#X connect 20 0 12 0;
