#N canvas 623 28 509 416 12;
#X obj 62 48 inlet~;
#X obj 65 337 outlet~;
#X text 59 30 Input~;
#X obj 65 205 -~;
#X obj 65 228 abs~;
#X obj 83 151 +~ 1.25829e+07;
#X obj 83 177 -~ 1.25829e+07;
#X text 191 164 round;
#X obj 63 84 *~ 0.25;
#X obj 63 110 +~ 0.25;
#X obj 65 251 -~ 0.25;
#X obj 65 285 *~ 4;
#X text 139 45 Infinite wavefolder folds signals over -1..+1;
#X connect 0 0 8 0;
#X connect 3 0 4 0;
#X connect 4 0 10 0;
#X connect 5 0 6 0;
#X connect 6 0 3 1;
#X connect 8 0 9 0;
#X connect 9 0 3 0;
#X connect 9 0 5 0;
#X connect 10 0 11 0;
#X connect 11 0 1 0;
